<svg width="137" height="147" viewBox="0 0 137 147" fill="none" xmlns="http://www.w3.org/2000/svg">
<path d="M124.768 54.5215C121.524 54.5215 118.412 55.7394 116.118 57.9073C113.824 60.0752 112.536 63.0155 112.536 66.0813V59.1454C112.536 57.9191 112.02 56.743 111.103 55.8758C110.185 55.0086 108.941 54.5215 107.643 54.5215H29.3571C28.0595 54.5215 26.815 55.0086 25.8974 55.8758C24.9798 56.743 24.4643 57.9191 24.4643 59.1454V66.0813C24.4643 63.0155 23.1755 60.0752 20.8816 57.9073C18.5876 55.7394 15.4763 54.5215 12.2321 54.5215C8.98798 54.5215 5.87668 55.7394 3.58271 57.9073C1.28874 60.0752 0 63.0155 0 66.0813V93.825C0 96.8909 1.28874 99.8312 3.58271 101.999C5.87668 104.167 8.98798 105.385 12.2321 105.385C15.4763 105.385 18.5876 104.167 20.8816 101.999C23.1755 99.8312 24.4643 96.8909 24.4643 93.825V110.009C24.4643 111.235 24.9798 112.411 25.8974 113.278C26.815 114.146 28.0595 114.633 29.3571 114.633H39.1429V135.44C39.1429 138.506 40.4316 141.447 42.7256 143.615C45.0195 145.782 48.1308 147 51.375 147C54.6192 147 57.7305 145.782 60.0244 143.615C62.3184 141.447 63.6071 138.506 63.6071 135.44V114.633H73.3929V135.44C73.3929 138.506 74.6816 141.447 76.9756 143.615C79.2695 145.782 82.3808 147 85.625 147C88.8692 147 91.9805 145.782 94.2744 143.615C96.5684 141.447 97.8571 138.506 97.8571 135.44V114.633H107.643C108.941 114.633 110.185 114.146 111.103 113.278C112.02 112.411 112.536 111.235 112.536 110.009V93.825C112.536 96.8909 113.824 99.8312 116.118 101.999C118.412 104.167 121.524 105.385 124.768 105.385C128.012 105.385 131.123 104.167 133.417 101.999C135.711 99.8312 137 96.8909 137 93.825V66.0813C137 63.0155 135.711 60.0752 133.417 57.9073C131.123 55.7394 128.012 54.5215 124.768 54.5215ZM14.6786 93.825C14.6786 94.4382 14.4208 95.0262 13.962 95.4598C13.5032 95.8934 12.881 96.137 12.2321 96.137C11.5833 96.137 10.9611 95.8934 10.5023 95.4598C10.0435 95.0262 9.78571 94.4382 9.78571 93.825V66.0813C9.78571 65.4682 10.0435 64.8801 10.5023 64.4465C10.9611 64.013 11.5833 63.7694 12.2321 63.7694C12.881 63.7694 13.5032 64.013 13.962 64.4465C14.4208 64.8801 14.6786 65.4682 14.6786 66.0813V93.825ZM53.8214 135.44C53.8214 136.054 53.5637 136.642 53.1049 137.075C52.6461 137.509 52.0238 137.752 51.375 137.752C50.7262 137.752 50.1039 137.509 49.6451 137.075C49.1863 136.642 48.9286 136.054 48.9286 135.44V114.633H53.8214V135.44ZM85.625 137.752C84.9801 137.741 84.3651 137.493 83.909 137.062C83.4529 136.631 83.1911 136.05 83.1786 135.44V114.633H88.0714V135.44C88.0589 136.05 87.7971 136.631 87.341 137.062C86.8849 137.493 86.2699 137.741 85.625 137.752ZM102.75 105.385H34.25V63.7694H102.75V105.385ZM127.214 93.825C127.214 94.4382 126.957 95.0262 126.498 95.4598C126.039 95.8934 125.417 96.137 124.768 96.137C124.119 96.137 123.497 95.8934 123.038 95.4598C122.579 95.0262 122.321 94.4382 122.321 93.825V66.0813C122.321 65.4682 122.579 64.8801 123.038 64.4465C123.497 64.013 124.119 63.7694 124.768 63.7694C125.417 63.7694 126.039 64.013 126.498 64.4465C126.957 64.8801 127.214 65.4682 127.214 66.0813V93.825Z" fill="#5A1DA9"/>
<path d="M24.6809 45.1921C24.597 45.8387 24.6586 46.4947 24.8618 47.1173C25.0649 47.7399 25.405 48.3151 25.8599 48.8053C26.3202 49.2994 26.8869 49.6954 27.5221 49.967C28.1574 50.2386 28.8467 50.3795 29.5441 50.3803H107.454C108.151 50.3795 108.841 50.2386 109.476 49.967C110.111 49.6954 110.678 49.2994 111.138 48.8053C111.593 48.3151 111.933 47.7399 112.136 47.1173C112.339 46.4947 112.401 45.8387 112.317 45.1921C110.898 34.4958 105.141 24.7336 96.2538 17.954L106.963 7.8555C107.709 6.9625 108.082 5.8417 108.009 4.70659C107.935 3.57147 107.422 2.50137 106.566 1.70011C105.711 0.898859 104.572 0.422439 103.368 0.361606C102.164 0.300773 100.978 0.659777 100.036 1.37024L87.8045 12.9047C81.7905 10.1402 75.1895 8.69886 68.499 8.68932C60.8792 8.68972 53.3926 10.5745 46.7865 14.1555L33.2284 1.37024C32.7717 0.936054 32.2284 0.591435 31.6298 0.356258C31.0312 0.121081 30.3891 0 29.7406 0C29.0922 0 28.4501 0.121081 27.8515 0.356258C27.2529 0.591435 26.7095 0.936054 26.2529 1.37024C25.338 2.23816 24.8244 3.41223 24.8244 4.63603C24.8244 5.85982 25.338 7.0339 26.2529 7.90182L38.7302 19.6679C30.9643 26.3203 25.9805 35.3746 24.6809 45.1921ZM101.412 41.1156H35.5863C37.724 34.4535 42.0783 28.6168 48.0054 24.4685C53.9325 20.3202 61.1178 18.0805 68.499 18.0805C75.8802 18.0805 83.0655 20.3202 88.9926 24.4685C94.9197 28.6168 99.274 34.4535 101.412 41.1156Z" fill="#5A1DA9"/>
</svg>
